<?xml version="1.0" standalone="no"?>
<!DOCTYPE svg PUBLIC "-//W3C//DTD SVG 20010904//EN"
 "http://www.w3.org/TR/2001/REC-SVG-20010904/DTD/svg10.dtd">
<svg version="1.0" xmlns="http://www.w3.org/2000/svg"
 width="500.000000pt" height="500.000000pt" viewBox="0 0 500.000000 500.000000"
 preserveAspectRatio="xMidYMid meet">
<metadata>
Created by potrace 1.11, written by Peter Selinger 2001-2013
</metadata>
<g transform="translate(0.000000,500.000000) scale(0.100000,-0.100000)"
fill="#000000" stroke="none">
<path d="M0 2500 l0 -2500 2500 0 2500 0 0 2500 0 2500 -2500 0 -2500 0 0
-2500z m1461 1814 c167 -16 316 -38 327 -49 3 -3 -2 -63 -12 -133 -29 -201
-23 -191 -62 -113 -56 112 -158 195 -279 227 -76 21 -247 18 -337 -5 -230 -59
-386 -225 -434 -460 -22 -113 -15 -289 16 -378 80 -230 322 -430 574 -473 104
-19 230 -9 291 21 l50 25 3 253 c2 193 -1 257 -10 269 -7 8 -35 26 -63 38
l-50 24 220 -1 c204 0 217 -1 180 -15 -22 -8 -52 -26 -67 -41 l-28 -27 0 -273
0 -273 -37 -19 c-113 -57 -301 -87 -487 -78 -384 20 -642 195 -735 499 -26 86
-45 264 -37 348 27 296 220 538 487 610 150 41 258 46 490 24z m1453 1 c208
-44 413 -211 516 -420 57 -117 80 -214 80 -345 0 -268 -123 -473 -375 -625
-385 -231 -968 -13 -1090 407 -55 192 -29 467 63 643 86 167 296 308 512 345
76 13 221 10 294 -5z m1606 -102 c-30 -154 -30 -153 -45 -110 -36 104 -65 117
-269 117 l-156 0 0 -643 c0 -717 -6 -661 73 -718 l40 -29 -209 0 c-196 0 -207
1 -179 16 16 8 38 23 49 32 47 43 46 32 46 707 l0 635 -155 0 c-111 0 -165 -4
-189 -14 -36 -15 -86 -78 -86 -108 0 -10 -3 -18 -8 -18 -10 0 -56 229 -48 237
3 4 17 1 31 -5 41 -19 1061 -16 1095 3 14 7 26 12 28 10 2 -2 -6 -52 -18 -112z
m-3375 -2038 c72 -8 154 -20 184 -26 l54 -11 -7 -56 c-4 -32 -14 -103 -22
-159 l-16 -101 -34 67 c-37 75 -115 156 -182 190 -100 51 -274 66 -417 36
-233 -49 -402 -224 -451 -464 -22 -113 -15 -289 16 -378 63 -182 240 -359 434
-434 228 -88 392 -55 562 115 l82 81 16 -91 c24 -136 25 -131 -46 -164 -127
-59 -204 -73 -408 -73 -168 0 -194 2 -282 26 -333 89 -508 293 -549 638 -19
168 0 298 65 434 128 271 379 403 741 390 72 -3 189 -12 260 -20z m2110 1
c-27 -13 -61 -35 -74 -49 l-23 -25 1 -608 c2 -682 -5 -619 80 -674 95 -60 208
-72 291 -30 42 21 112 87 141 133 l21 32 -6 -55 c-3 -30 -9 -88 -12 -127 l-7
-73 -405 0 -406 0 45 29 c83 52 79 16 79 734 0 724 8 661 -92 711 l-52 26 235
0 234 0 -50 -24z m1430 -1 c72 -8 154 -20 184 -26 l54 -11 -7 -56 c-4 -32 -14
-103 -22 -159 l-16 -101 -34 67 c-37 75 -115 156 -182 190 -100 51 -274 66
-417 36 -233 -49 -402 -224 -451 -464 -22 -113 -15 -289 16 -378 63 -182 240
-359 434 -434 228 -88 392 -55 562 115 l82 81 16 -91 c24 -136 25 -131 -46
-164 -127 -59 -204 -73 -408 -73 -168 0 -194 2 -282 26 -333 89 -508 293 -549
638 -19 168 0 298 65 434 128 271 379 403 741 390 72 -3 189 -12 260 -20z
m-2475 -464 c285 -692 369 -885 401 -924 16 -19 52 -47 81 -61 l52 -26 -234 0
c-227 0 -233 1 -216 19 9 10 35 26 56 36 29 13 39 23 35 35 -3 9 -45 119 -94
245 l-90 230 -208 0 -208 0 -79 -234 c-90 -266 -90 -271 -16 -308 l44 -23
-204 1 c-165 1 -198 3 -170 12 19 6 55 32 80 57 46 44 50 55 305 733 142 378
262 684 266 680 4 -5 93 -217 199 -472z"/>
<path d="M2692 4243 l-22 -4 2 -662 3 -662 23 -3 22 -3 0 670 c0 369 -1 670
-2 670 -2 -1 -13 -4 -26 -6z"/>
<path d="M2790 3583 c0 -368 2 -672 5 -675 3 -3 17 -3 30 0 l25 4 0 664 c0
567 -2 664 -14 664 -8 0 -21 3 -30 6 -15 6 -16 -57 -16 -663z"/>
<path d="M2521 4185 c-90 -43 -192 -142 -239 -232 -57 -109 -75 -197 -75 -373
0 -176 18 -264 75 -373 46 -88 159 -199 239 -236 35 -16 74 -32 87 -36 l22 -6
0 645 c0 742 13 669 -109 611z"/>
<path d="M2900 3570 l0 -652 28 6 c65 15 176 80 231 135 112 112 162 262 163
486 1 162 -20 270 -74 382 -56 118 -209 253 -325 288 l-23 6 0 -651z"/>
<path d="M1932 1692 c-34 -92 -75 -204 -92 -249 l-30 -83 184 0 183 0 -88 246
c-48 136 -90 248 -91 250 -2 2 -32 -72 -66 -164z"/>
</g>
</svg>
